# xmcd
#
# Track frame offsets:
#	150
#	15703
#	34543
#	55897
#	73973
#	97891
#	116528
#	132937
#	159848
#
# Disc length: 2468 seconds
#
# Revision: 1
# Processed by: cddbd v1.5.2PL0 Copyright (c) Steve Scherf et al.
# Submitted via: audiograbber 1.83.01
#
DISCID=6d09a209
DTITLE=Baby Sweetcorn - New Low
DYEAR=1900
DGENRE=
TTITLE0=Navigators
TTITLE1=Winning Horse
TTITLE2=Already in Love
TTITLE3=Marble Arch
TTITLE4=Sepia
TTITLE5=Arsonist
TTITLE6=New Low
TTITLE7=Marya Zaleska
TTITLE8=Sleep with the Lights on
EXTD=
EXTT0=
EXTT1=
EXTT2=
EXTT3=
EXTT4=
EXTT5=
EXTT6=
EXTT7=
EXTT8=
PLAYORDER=
